<svg id="Capa_1" data-name="Capa 1" xmlns="http://www.w3.org/2000/svg" viewBox="0 0 54 54"><defs><style>.cls-1{fill:#6c6c6c;}.cls-2{fill:none;stroke:#6c6c6c;stroke-miterlimit:10;stroke-width:0.75px;}</style></defs><title>entero</title><path class="cls-1" d="M16.49,22.21h0l-2.28,1.23-.34-1.35,2.86-1.53h1.52V33.67H16.49Z"/><path class="cls-1" d="M21.38,33.67V32.58l1.39-1.35c3.35-3.19,4.87-4.88,4.89-6.86a2.34,2.34,0,0,0-2.61-2.56,4.41,4.41,0,0,0-2.78,1.11l-.57-1.25a5.75,5.75,0,0,1,3.72-1.34,3.69,3.69,0,0,1,4,3.82c0,2.42-1.75,4.38-4.52,7l-1.05,1v0h5.9v1.47Z"/><path class="cls-1" d="M33,31.64a6,6,0,0,0,2.91.82c2.28,0,3-1.45,3-2.54,0-1.84-1.68-2.62-3.39-2.62h-1V26h1c1.29,0,2.92-.67,2.92-2.22,0-1.05-.66-2-2.3-2a4.74,4.74,0,0,0-2.62.87L33,21.34a6.3,6.3,0,0,1,3.44-1c2.58,0,3.75,1.54,3.75,3.13a3.26,3.26,0,0,1-2.42,3.09v0A3.41,3.41,0,0,1,40.71,30c0,2.1-1.63,3.94-4.78,3.94A6.72,6.72,0,0,1,32.52,33Z"/><rect class="cls-2" x="7.59" y="7.44" width="39.35" height="39.35" rx="6.27"/></svg>