<svg enable-background="new 0 0 512 512" viewBox="0 0 512 512" xmlns="http://www.w3.org/2000/svg" width="300" height="300" version="1.1" xmlns:xlink="http://www.w3.org/1999/xlink" xmlns:svgjs="http://svgjs.dev/svgjs"><g transform="matrix(1,0,0,1,0,0)"><g id="_x31_1_menu"><g><g fill="#54acff"><path d="m132.278 55.692v44.984c0 17.453-14.148 31.602-31.602 31.602h-44.984c-17.453 0-31.602-14.148-31.602-31.602v-44.984c0-17.453 14.148-31.602 31.602-31.602h44.984c17.453 0 31.602 14.148 31.602 31.602z" fill="#ffffff" fill-opacity="1" data-original-color="#54acffff" stroke="none" stroke-opacity="1"/><path d="m310.093 55.692v44.984c0 17.453-14.148 31.602-31.602 31.602h-44.984c-17.453 0-31.602-14.148-31.602-31.602v-44.984c0-17.453 14.148-31.602 31.602-31.602h44.984c17.454 0 31.602 14.148 31.602 31.602z" fill="#ffffff" fill-opacity="1" data-original-color="#54acffff" stroke="none" stroke-opacity="1"/><path d="m487.909 55.692v44.984c0 17.453-14.148 31.602-31.602 31.602h-44.984c-17.453 0-31.602-14.148-31.602-31.602v-44.984c0-17.453 14.148-31.602 31.602-31.602h44.984c17.454 0 31.602 14.148 31.602 31.602z" fill="#ffffff" fill-opacity="1" data-original-color="#54acffff" stroke="none" stroke-opacity="1"/><path d="m132.278 233.507v44.984c0 17.453-14.148 31.602-31.602 31.602h-44.984c-17.453 0-31.602-14.148-31.602-31.602v-44.984c0-17.453 14.148-31.602 31.602-31.602h44.984c17.453.001 31.602 14.149 31.602 31.602z" fill="#ffffff" fill-opacity="1" data-original-color="#54acffff" stroke="none" stroke-opacity="1"/><path d="m310.093 233.507v44.984c0 17.453-14.148 31.602-31.602 31.602h-44.984c-17.453 0-31.602-14.148-31.602-31.602v-44.984c0-17.453 14.148-31.602 31.602-31.602h44.984c17.454.001 31.602 14.149 31.602 31.602z" fill="#ffffff" fill-opacity="1" data-original-color="#54acffff" stroke="none" stroke-opacity="1"/><path d="m487.909 233.507v44.984c0 17.453-14.148 31.602-31.602 31.602h-44.984c-17.453 0-31.602-14.148-31.602-31.602v-44.984c0-17.453 14.148-31.602 31.602-31.602h44.984c17.454.001 31.602 14.149 31.602 31.602z" fill="#ffffff" fill-opacity="1" data-original-color="#54acffff" stroke="none" stroke-opacity="1"/><path d="m132.278 411.323v44.984c0 17.453-14.148 31.602-31.602 31.602h-44.984c-17.453 0-31.602-14.148-31.602-31.602v-44.984c0-17.453 14.148-31.602 31.602-31.602h44.984c17.453 0 31.602 14.149 31.602 31.602z" fill="#ffffff" fill-opacity="1" data-original-color="#54acffff" stroke="none" stroke-opacity="1"/><path d="m310.093 411.323v44.984c0 17.453-14.148 31.602-31.602 31.602h-44.984c-17.453 0-31.602-14.148-31.602-31.602v-44.984c0-17.453 14.148-31.602 31.602-31.602h44.984c17.454 0 31.602 14.149 31.602 31.602z" fill="#ffffff" fill-opacity="1" data-original-color="#54acffff" stroke="none" stroke-opacity="1"/><path d="m487.909 411.323v44.984c0 17.453-14.148 31.602-31.602 31.602h-44.984c-17.453 0-31.602-14.148-31.602-31.602v-44.984c0-17.453 14.148-31.602 31.602-31.602h44.984c17.454 0 31.602 14.149 31.602 31.602z" fill="#ffffff" fill-opacity="1" data-original-color="#54acffff" stroke="none" stroke-opacity="1"/></g><path d="m55.693 136.915h44.985c19.982 0 36.238-16.256 36.238-36.24v-44.984c0-19.982-16.256-36.238-36.238-36.238h-44.985c-19.984 0-36.24 16.256-36.24 36.238v44.985c0 19.983 16.256 36.239 36.24 36.239zm-26.964-81.224c0-14.866 12.096-26.962 26.964-26.962h44.985c14.866 0 26.962 12.096 26.962 26.962v44.985c0 14.868-12.096 26.964-26.962 26.964h-44.985c-14.868 0-26.964-12.096-26.964-26.964z" fill="#ffffff" fill-opacity="1" data-original-color="#000000ff" stroke="none" stroke-opacity="1"/><path d="m233.509 136.915h44.982c19.984 0 36.24-16.256 36.24-36.24v-44.984c0-19.982-16.256-36.238-36.24-36.238h-44.982c-19.984 0-36.24 16.256-36.24 36.238v44.985c0 19.983 16.256 36.239 36.24 36.239zm-26.964-81.224c0-14.866 12.096-26.962 26.964-26.962h44.982c14.868 0 26.964 12.096 26.964 26.962v44.985c0 14.868-12.096 26.964-26.964 26.964h-44.982c-14.868 0-26.964-12.096-26.964-26.964z" fill="#ffffff" fill-opacity="1" data-original-color="#000000ff" stroke="none" stroke-opacity="1"/><path d="m456.307 19.453h-44.985c-19.982 0-36.238 16.256-36.238 36.238v44.985c0 19.984 16.256 36.24 36.238 36.24h44.985c19.984 0 36.24-16.256 36.24-36.24v-44.985c0-19.982-16.256-36.238-36.24-36.238zm26.964 81.222c0 14.868-12.096 26.964-26.964 26.964h-44.985c-14.866 0-26.962-12.096-26.962-26.964v-44.984c0-14.866 12.096-26.962 26.962-26.962h44.985c14.868 0 26.964 12.096 26.964 26.962z" fill="#ffffff" fill-opacity="1" data-original-color="#000000ff" stroke="none" stroke-opacity="1"/><path d="m55.693 314.731h44.985c19.982 0 36.238-16.256 36.238-36.24v-44.985c0-19.984-16.256-36.24-36.238-36.24h-44.985c-19.984 0-36.24 16.256-36.24 36.24v44.985c0 19.984 16.256 36.24 36.24 36.24zm-26.964-81.224c0-14.868 12.096-26.964 26.964-26.964h44.985c14.866 0 26.962 12.096 26.962 26.964v44.985c0 14.868-12.096 26.964-26.962 26.964h-44.985c-14.868 0-26.964-12.096-26.964-26.964z" fill="#ffffff" fill-opacity="1" data-original-color="#000000ff" stroke="none" stroke-opacity="1"/><path d="m197.269 278.491c0 19.984 16.256 36.24 36.24 36.24h44.982c19.984 0 36.24-16.256 36.24-36.24v-44.985c0-19.984-16.256-36.24-36.24-36.24h-44.982c-19.984 0-36.24 16.256-36.24 36.24zm9.276-44.984c0-14.868 12.096-26.964 26.964-26.964h44.982c14.868 0 26.964 12.096 26.964 26.964v44.985c0 14.868-12.096 26.964-26.964 26.964h-44.982c-14.868 0-26.964-12.096-26.964-26.964z" fill="#ffffff" fill-opacity="1" data-original-color="#000000ff" stroke="none" stroke-opacity="1"/><path d="m456.307 197.266h-44.985c-19.982 0-36.238 16.256-36.238 36.24v44.985c0 19.984 16.256 36.24 36.238 36.24h44.985c19.984 0 36.24-16.256 36.24-36.24v-44.985c0-19.983-16.256-36.24-36.24-36.24zm26.964 81.225c0 14.868-12.096 26.964-26.964 26.964h-44.985c-14.866 0-26.962-12.096-26.962-26.964v-44.985c0-14.868 12.096-26.964 26.962-26.964h44.985c14.868 0 26.964 12.096 26.964 26.964z" fill="#ffffff" fill-opacity="1" data-original-color="#000000ff" stroke="none" stroke-opacity="1"/><path d="m55.693 492.547h44.985c19.982 0 36.238-16.256 36.238-36.24v-44.985c0-19.984-16.256-36.24-36.238-36.24h-44.985c-19.984 0-36.24 16.256-36.24 36.24v44.985c0 19.984 16.256 36.24 36.24 36.24zm-26.964-81.224c0-14.868 12.096-26.964 26.964-26.964h44.985c14.866 0 26.962 12.096 26.962 26.964v44.985c0 14.868-12.096 26.964-26.962 26.964h-44.985c-14.868 0-26.964-12.096-26.964-26.964z" fill="#ffffff" fill-opacity="1" data-original-color="#000000ff" stroke="none" stroke-opacity="1"/><path d="m197.269 456.307c0 19.984 16.256 36.24 36.24 36.24h44.982c19.984 0 36.24-16.256 36.24-36.24v-44.985c0-19.984-16.256-36.24-36.24-36.24h-44.982c-19.984 0-36.24 16.256-36.24 36.24zm9.276-44.984c0-14.868 12.096-26.964 26.964-26.964h44.982c14.868 0 26.964 12.096 26.964 26.964v44.985c0 14.868-12.096 26.964-26.964 26.964h-44.982c-14.868 0-26.964-12.096-26.964-26.964z" fill="#ffffff" fill-opacity="1" data-original-color="#000000ff" stroke="none" stroke-opacity="1"/><path d="m456.307 375.082h-44.985c-19.982 0-36.238 16.256-36.238 36.24v44.985c0 19.984 16.256 36.24 36.238 36.24h44.985c19.984 0 36.24-16.256 36.24-36.24v-44.985c0-19.983-16.256-36.24-36.24-36.24zm26.964 81.225c0 14.868-12.096 26.964-26.964 26.964h-44.985c-14.866 0-26.962-12.096-26.962-26.964v-44.985c0-14.868 12.096-26.964 26.962-26.964h44.985c14.868 0 26.964 12.096 26.964 26.964z" fill="#ffffff" fill-opacity="1" data-original-color="#000000ff" stroke="none" stroke-opacity="1"/></g></g><g id="Layer_1"/></g></svg>