<?xml version="1.0" encoding="iso-8859-1"?>
<!-- Generator: Adobe Illustrator 19.0.0, SVG Export Plug-In . SVG Version: 6.00 Build 0)  -->
<svg version="1.1" id="Capa_1" xmlns="http://www.w3.org/2000/svg" xmlns:xlink="http://www.w3.org/1999/xlink" x="0px" y="0px"
	 viewBox="0 0 512 512" style="enable-background:new 0 0 512 512;" xml:space="preserve">
<path style="fill:#E9E9E9;" d="M320,0H80C66.767,0,56,10.766,56,24v464c0,13.234,10.767,24,24,24h240c13.233,0,24-10.766,24-24V24
	C344,10.766,333.233,0,320,0z"/>
<g>
	<path style="fill:#D3D2D2;" d="M80,0C66.767,0,56,10.766,56,24v82L162,0H80z"/>
	<polygon style="fill:#D3D2D2;" points="189,0 56,133 56,195 251,0 	"/>
	<path style="fill:#D3D2D2;" d="M326.966,1.034L56,272v216c0,13.234,10.767,24,24,24h240c13.233,0,24-10.766,24-24V24
		C344,13.188,336.812,4.027,326.966,1.034z"/>
</g>
<path style="fill:#656263;" d="M320,0H80C66.745,0,56,10.745,56,24v40h288V24C344,10.745,333.255,0,320,0z"/>
<path style="fill:#4F4C4D;" d="M104,0H80C66.745,0,56,10.745,56,24v40h24V24C80,10.745,90.745,0,104,0z"/>
<path style="fill:#656263;" d="M344,432H56v56c0,13.255,10.745,24,24,24h240c13.255,0,24-10.745,24-24V432z"/>
<g>
	<path style="fill:#4F4C4D;" d="M80,488v-56H56v56c0,13.255,10.745,24,24,24h24C90.745,512,80,501.255,80,488z"/>
	<path style="fill:#4F4C4D;" d="M216,480h-32c-4.418,0-8-3.582-8-8s3.582-8,8-8h32c4.418,0,8,3.582,8,8S220.418,480,216,480z"/>
	<path style="fill:#4F4C4D;" d="M200,40h-1c-4.418,0-8-3.582-8-8s3.582-8,8-8h1c4.418,0,8,3.582,8,8S204.418,40,200,40z"/>
	<path style="fill:#4F4C4D;" d="M224,40h-1c-4.418,0-8-3.582-8-8s3.582-8,8-8h1c4.418,0,8,3.582,8,8S228.418,40,224,40z"/>
	<path style="fill:#4F4C4D;" d="M176,40h-1c-4.418,0-8-3.582-8-8s3.582-8,8-8h1c4.418,0,8,3.582,8,8S180.418,40,176,40z"/>
</g>
<path style="fill:#7BE1E8;" d="M384,184c-5.518,0-10.955,0.62-16.26,1.851C364.609,149.018,333.629,120,296,120
	s-68.609,29.018-71.74,65.851C218.955,184.62,213.518,184,208,184c-39.701,0-72,32.299-72,72s32.299,72,72,72h176
	c39.701,0,72-32.299,72-72S423.701,184,384,184z"/>
<path style="fill:#41CDE0;" d="M400,304H224c-39.701,0-72-32.299-72-72c0-9.571,1.893-18.704,5.298-27.065
	C144.154,217.986,136,236.057,136,256c0,39.701,32.299,72,72,72h176c30.13,0,55.981-18.611,66.702-44.935
	C437.679,295.996,419.758,304,400,304z"/>
<path style="fill:#FFCD78;" d="M423.503,349.225c-1.161-3.14-4.155-5.225-7.503-5.225h-24v-40c0-4.418-3.582-8-8-8h-48
	c-4.418,0-8,3.582-8,8v40h-24c-3.208,0-6.18,1.991-7.399,4.958c-1.297,3.158-0.4,6.894,2.193,9.116l56,48
	c2.959,2.536,7.453,2.536,10.412,0l56-48C423.748,355.896,424.665,352.364,423.503,349.225z"/>
<g>
	<path style="fill:#F7A840;" d="M343.988,304c0-4.418,3.582-8,8-8H336c-4.418,0-8,3.582-8,8v40h15.988V304z"/>
	<path style="fill:#F7A840;" d="M314.782,358.074c-2.593-2.222-3.49-5.958-2.193-9.116c1.219-2.968,4.191-4.958,7.399-4.958H304
		c-3.208,0-6.18,1.99-7.399,4.958c-1.297,3.158-0.4,6.894,2.193,9.116l56,48c2.959,2.536,7.453,2.536,10.412,0l2.788-2.39
		L314.782,358.074z"/>
</g>
<g>
	<path style="fill:#F79036;" d="M384,280h-48c-4.418,0-8-3.582-8-8s3.582-8,8-8h48c4.418,0,8,3.582,8,8S388.418,280,384,280z"/>
	<path style="fill:#F79036;" d="M384,256h-48c-4.418,0-8-3.582-8-8s3.582-8,8-8h48c4.418,0,8,3.582,8,8S388.418,256,384,256z"/>
</g>
<path style="fill:#FFCD78;" d="M317.206,281.926l-56-48c-2.996-2.567-7.416-2.567-10.412,0l-56,48
	c-2.542,2.179-3.459,5.71-2.297,8.85c1.161,3.14,4.155,5.225,7.503,5.225h24v40c0,4.418,3.582,8,8,8h48c4.418,0,8-3.582,8-8v-40h24
	c3.208,0,6.18-1.991,7.399-4.958C320.696,287.884,319.799,284.148,317.206,281.926z"/>
<g>
	<path style="fill:#F7A840;" d="M208.498,290.775c-1.162-3.14-0.245-6.671,2.297-8.85L264,236.321l-2.794-2.395
		c-2.996-2.567-7.416-2.567-10.412,0l-56,48c-2.542,2.179-3.459,5.71-2.297,8.85c1.161,3.14,4.155,5.225,7.503,5.225h16
		C212.653,296,209.659,293.916,208.498,290.775z"/>
	<path style="fill:#F7A840;" d="M240,336v-40h-16v40c0,4.418,3.582,8,8,8h16C243.583,344,240,340.418,240,336z"/>
</g>
<g>
	<path style="fill:#F79036;" d="M280,376h-48c-4.418,0-8-3.582-8-8s3.582-8,8-8h48c4.418,0,8,3.582,8,8S284.418,376,280,376z"/>
	<path style="fill:#F79036;" d="M280,400h-48c-4.418,0-8-3.582-8-8s3.582-8,8-8h48c4.418,0,8,3.582,8,8S284.418,400,280,400z"/>
</g>
<g>
</g>
<g>
</g>
<g>
</g>
<g>
</g>
<g>
</g>
<g>
</g>
<g>
</g>
<g>
</g>
<g>
</g>
<g>
</g>
<g>
</g>
<g>
</g>
<g>
</g>
<g>
</g>
<g>
</g>
</svg>
