<?xml version="1.0" encoding="iso-8859-1"?>
<!-- Generator: Adobe Illustrator 19.0.0, SVG Export Plug-In . SVG Version: 6.00 Build 0)  -->
<svg version="1.1" id="Capa_1" xmlns="http://www.w3.org/2000/svg" xmlns:xlink="http://www.w3.org/1999/xlink" x="0px" y="0px"
	 viewBox="0 0 512 512" style="enable-background:new 0 0 512 512;" xml:space="preserve">
<path style="fill:#E9E9E9;" d="M504,18.001H8c-4.418,0-8,3.582-8,8v400c0,4.418,3.582,8,8,8h496c4.418,0,8-3.582,8-8v-400
	C512,21.583,508.418,18.001,504,18.001z"/>
<path style="fill:#D3D2D2;" d="M24,426.001v-400c0-4.418,3.582-8,8-8H8c-4.418,0-8,3.582-8,8v400c0,4.418,3.582,8,8,8h24
	C27.582,434.001,24,430.419,24,426.001z"/>
<path style="fill:#41CDE0;" d="M504,18.001H8c-4.418,0-8,3.582-8,8v88h512v-88C512,21.583,508.418,18.001,504,18.001z"/>
<path style="fill:#1EA9BD;" d="M32,18.001H8c-4.418,0-8,3.582-8,8v88h24v-88C24,21.583,27.582,18.001,32,18.001z"/>
<path style="fill:#DE6B5D;" d="M456,42.001c-13.233,0-24,10.766-24,24s10.767,24,24,24s24-10.766,24-24S469.233,42.001,456,42.001z"
	/>
<path style="fill:#FF8C78;" d="M456,50.001c-8.822,0-16,7.177-16,16s7.178,16,16,16s16-7.177,16-16S464.822,50.001,456,50.001z"/>
<path style="fill:#F7A840;" d="M400,42.001c-13.233,0-24,10.766-24,24s10.767,24,24,24s24-10.766,24-24S413.233,42.001,400,42.001z"
	/>
<path style="fill:#FFCD78;" d="M400,50.001c-8.822,0-16,7.177-16,16s7.178,16,16,16s16-7.177,16-16S408.822,50.001,400,50.001z"/>
<path style="fill:#9ACC5C;" d="M344,42.001c-13.233,0-24,10.766-24,24s10.767,24,24,24s24-10.766,24-24S357.233,42.001,344,42.001z"
	/>
<path style="fill:#C2DE5D;" d="M344,50.001c-8.822,0-16,7.177-16,16s7.178,16,16,16s16-7.177,16-16S352.822,50.001,344,50.001z"/>
<path style="fill:#FFCD78;" d="M504.784,361.245l-28.085-5.617c-1.119-3.247-2.458-6.464-4-9.609l15.899-23.85
	c1.058-1.586,0.849-3.699-0.5-5.047l-25.22-25.22c-1.348-1.349-3.462-1.556-5.047-0.5l-23.851,15.9
	c-3.143-1.542-6.359-2.881-9.608-4l-5.618-28.085c-0.373-1.87-2.016-3.215-3.922-3.215h-35.666c-1.906,0-3.549,1.346-3.922,3.215
	l-5.618,28.085c-3.249,1.12-6.466,2.459-9.608,4l-23.851-15.9c-1.586-1.057-3.699-0.849-5.047,0.5l-25.22,25.22
	c-1.349,1.349-1.558,3.461-0.5,5.047l15.899,23.85c-1.542,3.145-2.881,6.362-4,9.609l-28.085,5.617
	c-1.87,0.374-3.216,2.016-3.216,3.922v35.667c0,1.907,1.346,3.548,3.216,3.922l28.085,5.617c1.119,3.247,2.458,6.464,4,9.609
	l-15.899,23.85c-1.058,1.586-0.849,3.699,0.5,5.047l25.22,25.22c1.348,1.349,3.461,1.557,5.047,0.5l23.851-15.9
	c3.143,1.542,6.359,2.881,9.608,4l5.618,28.085c0.373,1.87,2.016,3.215,3.922,3.215h35.666c1.906,0,3.549-1.346,3.922-3.215
	l5.618-28.085c3.249-1.12,6.466-2.459,9.608-4l23.851,15.9c1.585,1.057,3.699,0.849,5.047-0.5l25.22-25.22
	c1.349-1.349,1.558-3.461,0.5-5.047l-15.899-23.85c1.542-3.145,2.881-6.362,4-9.609l28.085-5.617
	c1.87-0.374,3.216-2.016,3.216-3.922v-35.667C508,363.261,506.654,361.619,504.784,361.245z M428.667,383.001
	c0,17.461-14.206,31.667-31.667,31.667s-31.667-14.206-31.667-31.667s14.206-31.667,31.667-31.667S428.667,365.54,428.667,383.001z"
	/>
<path style="fill:#F7A840;" d="M397,327.001c-30.928,0-56,25.072-56,56s25.072,56,56,56s56-25.072,56-56
	S427.928,327.001,397,327.001z M397,414.668c-17.461,0-31.667-14.206-31.667-31.667s14.206-31.667,31.667-31.667
	s31.667,14.206,31.667,31.667S414.461,414.668,397,414.668z"/>
<g>
	<path style="fill:#FF8C78;" d="M162.858,264.055l-48-120c-3.893-9.734-16.454-13.153-24.725-6.671
		c-2.215,1.736-3.941,4.059-4.985,6.671l-48,120c-2.535,6.334-0.676,13.807,4.553,18.195c5.252,4.406,12.924,4.946,18.75,1.341
		c2.891-1.789,5.146-4.496,6.408-7.651l15.177-37.942h35.936l15.177,37.942c2.24,5.6,7.547,9.531,13.563,10.01
		c6.789,0.54,13.319-3.394,15.999-9.649C164.369,272.427,164.444,267.964,162.858,264.055z M105.171,205.997H94.836l5.167-12.919
		L105.171,205.997z"/>
	<path style="fill:#FF8C78;" d="M224.003,133.997h-32c-8.822,0-16,7.178-16,16v120c0,8.822,7.178,16,16,16s16-7.178,16-16v-32h16
		c26.467,0,48-21.533,48-48v-8C272.003,155.53,250.47,133.997,224.003,133.997z M240.003,181.997v8c0,8.822-7.178,16-16,16h-16v-40
		h16C232.825,165.997,240.003,173.175,240.003,181.997z"/>
	<path style="fill:#FF8C78;" d="M304.003,133.997c-8.822,0-16,7.178-16,16v120c0,8.822,7.178,16,16,16s16-7.178,16-16v-120
		C320.003,141.175,312.825,133.997,304.003,133.997z"/>
</g>
<g>
</g>
<g>
</g>
<g>
</g>
<g>
</g>
<g>
</g>
<g>
</g>
<g>
</g>
<g>
</g>
<g>
</g>
<g>
</g>
<g>
</g>
<g>
</g>
<g>
</g>
<g>
</g>
<g>
</g>
</svg>
