<?xml version="1.0" encoding="utf-8"?>
<!-- Generator: Adobe Illustrator 24.0.2, SVG Export Plug-In . SVG Version: 6.00 Build 0)  -->
<svg version="1.1" id="Capa_1" xmlns="http://www.w3.org/2000/svg" xmlns:xlink="http://www.w3.org/1999/xlink" x="0px" y="0px"
	 viewBox="0 0 512 512" style="enable-background:new 0 0 512 512;" xml:space="preserve">
<style type="text/css">
	.st0{fill:#FFFFFF;}
</style>
<g id="Outline">
	<path class="st0" d="M305.3,240H232c-17.7,0-32,14.3-32,32h-44.7l-31-31c-12-12-31.4-12-43.3,0s-12,31.4,0,43.3l51.7,51.7H440v-80
		h-86.7L305.3,240z M424,320H139.3l-47-47c-5.7-5.7-5.7-15,0-20.7c2.7-2.7,6.5-4.3,10.3-4.3c3.9,0,7.6,1.6,10.3,4.3l35.7,35.7h55.6
		c5.7,9.9,16.3,16,27.7,16h72v-16h-72c-8.8,0-16-7.2-16-16s7.2-16,16-16h70.7l48,16H424V320z"/>
	<path class="st0" d="M256,168c26.5,0,48-21.5,48-48s-21.5-48-48-48s-48,21.5-48,48C208,146.5,229.5,168,256,168z M256,152
		c-17.7,0-32-14.3-32-32c0-2.7,0.4-5.4,1.1-8h61.7c0.7,2.6,1.1,5.3,1.1,8C288,137.7,273.7,152,256,152z M276.9,96h-41.9
		C247,85.3,265,85.3,276.9,96z"/>
	<path class="st0" d="M332.3,96c-1.4-4.5-3.2-8.8-5.4-13l19.6-19.6l-33.9-33.9L293,49.1c-4.1-2.2-8.5-4-13-5.4V16h-48v27.7
		c-4.5,1.4-8.8,3.2-13,5.4l-19.6-19.6l-33.9,33.9L185.1,83c-2.2,4.1-4,8.5-5.4,13H16v320h192v30.5L188.2,496h135.6L304,446.5V416
		h192V96H332.3z M168,112h24.2l1.4-6.2c1.6-7,4.4-13.7,8.2-19.8l3.4-5.4l-17.1-17.2l11.3-11.3l17.1,17.1l5.4-3.4
		c6.1-3.8,12.8-6.6,19.8-8.2l6.2-1.4V32h16v24.2l6.2,1.4c7,1.6,13.7,4.4,19.8,8.2l5.4,3.4l17.1-17.1l11.3,11.3l-17.1,17.2l3.4,5.4
		c3.9,6.1,6.6,12.8,8.3,19.8l1.4,6.2H344v16h-24.2l-1.4,6.2c-1.6,7-4.4,13.7-8.2,19.8l-3.4,5.4l17.1,17.2l-11.3,11.3l-17.1-17.1
		l-5.4,3.4c-6.1,3.8-12.8,6.6-19.8,8.2l-6.2,1.4V208h-16v-24.2l-6.2-1.4c-7-1.6-13.7-4.4-19.8-8.2l-5.4-3.4l-17.1,17.1l-11.3-11.3
		l17.1-17.2l-3.4-5.4c-3.8-6.1-6.6-12.8-8.2-19.8l-1.4-6.2H168V112z M211.8,480l9.6-24h69.2l9.6,24H211.8z M288,440h-64v-24h64V440z
		 M480,400H32v-32h448V400z M480,112v240H32V112h120v32h27.7c1.4,4.5,3.2,8.8,5.4,13l-19.6,19.6l33.9,33.9l19.6-19.6
		c4.1,2.2,8.5,4,13,5.4V224h48v-27.7c4.5-1.4,8.8-3.2,13-5.4l19.6,19.6l33.9-33.9L326.9,157c2.2-4.1,4-8.5,5.4-13H360v-32H480z"/>
</g>
</svg>
